<svg width="64" height="64" viewBox="0 0 64 64" fill="none" xmlns="http://www.w3.org/2000/svg">
  <defs>
    <linearGradient id="bg" x1="12" y1="10" x2="52" y2="54" gradientUnits="userSpaceOnUse">
      <stop stop-color="#102A43"/>
      <stop offset="0.55" stop-color="#1E40AF"/>
      <stop offset="1" stop-color="#38BDF8"/>
    </linearGradient>
  </defs>
  <rect x="4" y="4" width="56" height="56" rx="16" fill="url(#bg)"/>
  <path d="M20 18H34C40.6274 18 46 23.3726 46 30C46 36.6274 40.6274 42 34 42H20V18Z" fill="#F8FAFC"/>
  <path d="M27 24H33.5C35.9853 24 38 26.0147 38 28.5C38 30.9853 35.9853 33 33.5 33H27V24Z" fill="#1E3A8A"/>
  <path d="M27 35H35.5C38.5376 35 41 37.4624 41 40.5C41 43.5376 38.5376 46 35.5 46H27V35Z" fill="#1E3A8A"/>
</svg>
